<svg xmlns="http://www.w3.org/2000/svg" xmlns:xlink="http://www.w3.org/1999/xlink" height="6.649259323858132" width="10.088342834358173">
  <g opacity="1">
    <path fill="rgb(105,55,179)" fill-opacity="1" opacity="1" fill-rule="evenodd" d="M2.356262445451307 6.532059005056226C2.431274652482557 6.607071212087476 2.533630609513807 6.649246505056226 2.639099359513807 6.649246505056226C2.645324945451307 6.649246505056226 2.651550531388807 6.649246505056226 2.657837152482557 6.648453048024976C2.770324945451307 6.643783858571851 2.875793695451307 6.591446212087476 2.946899652482557 6.503921798024976L7.746948480607557 0.7039034874781009C7.888305902482557 0.5343783409937259 7.864135980607557 0.28202848747810094 7.693786859513807 0.14140348747810094C7.524292230607557 -0.000014969553149057901 7.271911859513807 0.023422530446850942 7.131286859513807 0.19450407341560094L2.610962152482557 5.655502608571851L0.721863031388807 3.766403487478101C0.565613031388807 3.610153487478101 0.31250023842005703 3.610153487478101 0.15625023842005703 3.766403487478101C2.384200570304529e-7 3.922653487478101 2.384200570304529e-7 4.175796798024976 0.15625023842005703 4.332046798024976L2.356262445451307 6.532059005056226ZM5.146911859513807 6.503921798024976C5.075012445451307 6.591446212087476 4.970337152482557 6.643783858571851 4.857788324357557 6.648453048024976C4.851562738420057 6.649246505056226 4.845337152482557 6.649246505056226 4.839050531388807 6.649246505056226C4.733581781388807 6.649246505056226 4.631225824357557 6.607071212087476 4.556274652482557 6.532059005056226L4.156250238420057 6.132065108571851C4.000000238420057 5.975815108571851 4.000000238420057 5.722671798024976 4.156250238420057 5.566421798024976C4.312500238420057 5.410171798024976 4.565613031388807 5.410171798024976 4.721863031388807 5.566421798024976L4.810913324357557 5.655502608571851L9.331299066545057 0.19450407341560094C9.471924066545057 0.024215987478100942 9.724243402482557 -0.000014969553149057901 9.893799066545057 0.14140348747810094C10.064087152482557 0.28202848747810094 10.088318109513807 0.5343783409937259 9.946899652482557 0.7039034874781009L5.146911859513807 6.503921798024976Z"/>
  </g>
</svg>