<svg xmlns="http://www.w3.org/2000/svg" viewBox="0 0 471.44 99.39"><defs><style>.cls-1{fill:#6937b3;}</style></defs><title>black</title><g id="Layer_2" data-name="Layer 2"><g id="Layer_2-2" data-name="Layer 2"><rect class="cls-1" x="-5.68" y="39.07" width="126.23" height="18.93" rx="9.47" transform="translate(-15.65 30.83) rotate(-26.58)"/><path d="M102.11,51.58l2,4a5.07,5.07,0,0,1-2.25,6.78L58.11,84.18l6.45,12.89L44.81,90.84,18.86,82.65,89.53,47.3l3.83-1.92a5.06,5.06,0,0,1,6.77,2.26l1.94,3.87Z"/><path d="M12.77,45.48l-2-3.95a5.07,5.07,0,0,1,2.26-6.78L56.76,12.88,50.32,0,70.06,6.23l26,8.19L25.35,49.77l-3.83,1.92a5.08,5.08,0,0,1-6.78-2.26l-1.93-3.87A.2.2,0,0,1,12.77,45.48Z"/><path d="M136.81,37.38a7.5,7.5,0,1,1,15,0V38c3.45-4.44,8-8.48,15.57-8.48,6.91,0,12.13,3.06,14.89,8.38,4.64-5.42,10.16-8.38,17.35-8.38,11.15,0,17.85,6.7,17.85,19.42V76.42a7.5,7.5,0,0,1-15,0V53.84c0-7.1-3.15-10.74-8.77-10.74s-9.07,3.64-9.07,10.74V76.42a7.5,7.5,0,0,1-15,0V53.84c0-7.1-3.15-10.74-8.77-10.74s-9.07,3.64-9.07,10.74V76.42a7.5,7.5,0,0,1-15,0Z"/><path d="M271.59,76.42a7.5,7.5,0,0,1-15,0v-.59c-3.45,4.44-7.89,8.48-15.48,8.48-11.34,0-17.94-7.49-17.94-19.62V37.38a7.49,7.49,0,1,1,15,0V60c0,7.09,3.36,10.74,9.08,10.74S256.6,67.05,256.6,60V37.38a7.5,7.5,0,1,1,15,0Z"/><path class="cls-1" d="M276.71,78.29a6,6,0,0,1-2.86-5.12A5.92,5.92,0,0,1,282.73,68c5,3.16,10,4.73,14.29,4.73s6.31-1.57,6.31-3.94v-.2c0-3.25-5.12-4.34-10.94-6.11-7.39-2.17-15.78-5.62-15.78-15.87v-.2c0-10.75,8.68-16.76,19.33-16.76a37.23,37.23,0,0,1,16.37,4,6.11,6.11,0,0,1,3.54,5.62,5.89,5.89,0,0,1-6,5.91,5.42,5.42,0,0,1-2.76-.69c-4.24-2.07-8.28-3.35-11.44-3.35-3.64,0-5.52,1.58-5.52,3.65v.2c0,3,5,4.34,10.75,6.31,7.39,2.46,16,6,16,15.67v.2c0,11.73-8.77,17.06-20.21,17.06A36.77,36.77,0,0,1,276.71,78.29Z"/><path class="cls-1" d="M323,98c-2.16-.79-4.73-2.56-4.73-6.21a6,6,0,0,1,5.92-6.11,7.24,7.24,0,0,1,2.46.39,9.65,9.65,0,0,0,3.16.59c2.66,0,3.94-.49,5.32-3.15l.49-1.18-18-41.81a11,11,0,0,1-.79-3.45,7.11,7.11,0,0,1,7.4-7.2c3.74,0,5.91,2.07,7.19,5.62l11.44,30.77,11-30.67c1.19-3.15,3.36-5.72,7.2-5.72a7,7,0,0,1,7.1,6.91,11.22,11.22,0,0,1-.69,3.55L349,84.6c-4.43,10.75-8.87,14.79-17.84,14.79A22.56,22.56,0,0,1,323,98Z"/><path class="cls-1" d="M371.07,37.38a7.49,7.49,0,1,1,15,0V38c3.46-4.44,7.89-8.48,15.48-8.48,11.34,0,18,7.49,18,19.62V76.42a7.5,7.5,0,0,1-15,0V53.84c0-7.1-3.35-10.74-9.07-10.74s-9.37,3.64-9.37,10.74V76.42a7.49,7.49,0,0,1-15,0Z"/><path class="cls-1" d="M423,57.19V57c0-15.09,11.53-27.51,27.7-27.51,8,0,13.61,2.17,18,5.92a6.61,6.61,0,0,1,2.37,5.12,6.74,6.74,0,0,1-6.8,6.71A7,7,0,0,1,460,45.76a14.28,14.28,0,0,0-9.37-3.35c-7.49,0-12.82,6.6-12.82,14.39V57c0,8.08,5.23,14.59,13.41,14.59a15.16,15.16,0,0,0,9.86-3.65,7,7,0,0,1,4.05-1.38,6.36,6.36,0,0,1,4.14,11.14c-4.44,4-10.06,6.81-18.74,6.81A27,27,0,0,1,423,57.19Z"/></g></g></svg>