<svg id="waves" xmlns="http://www.w3.org/2000/svg" width="1920" height="263.22" viewBox="0 0 1920 263.22">
  <defs>
    <style>
      .cls-1 {
        fill: #fff;
        fill-rule: evenodd;
        opacity: 0.3;
      }
    </style>
  </defs>
  <path class="cls-1" d="M2115,4514.76s52.25-162.01,116.64-162.01,89.51,116.65,184.69,116.65c153.5,0,181.85-168.49,301.33-168.49s172.14,181.45,298.1,181.45c151.88,0,181.85-129.61,252.73-129.61s138.11,136.09,174.96,136.09,76.55-55.08,129.61-55.08,113.81,84.24,129.6,84.24h61.57s44.14-38.88,90.72-38.88,90.72,38.88,90.72,38.88Z" transform="translate(-2020 -4254.78)"/>
  <path id="Shape_1_copy" data-name="Shape 1 copy" class="cls-1" d="M1771,4514.15s62.04-192.36,138.5-192.36,106.29,138.5,219.3,138.5c182.27,0,215.93-200.06,357.8-200.06s204.39,215.45,353.96,215.45c180.34,0,215.93-153.89,300.09-153.89s163.99,161.58,207.75,161.58,90.9-65.4,153.9-65.4S3637.43,4518,3656.19,4518h73.1s52.42-46.17,107.72-46.17S3944.74,4518,3944.74,4518Z" transform="translate(-2020 -4254.78)"/>
  <path id="Shape_1_copy_2" data-name="Shape 1 copy 2" class="cls-1" d="M4239.6,4514.07s-63.35-196.42-141.43-196.42-108.52,141.42-223.92,141.42c-186.11,0-220.49-204.28-365.35-204.28s-208.7,220-361.42,220c-184.15,0-220.49-157.14-306.43-157.14s-167.45,164.99-212.14,164.99-92.81-66.78-157.14-66.78S2333.79,4518,2314.64,4518h-74.65s-53.52-47.14-109.99-47.14S2020,4518,2020,4518Z" transform="translate(-2020 -4254.78)"/>
</svg>
